<svg id="Layer_1" data-name="Layer 1" xmlns="http://www.w3.org/2000/svg" viewBox="0 0 616 616"><title>favicon</title><circle cx="308" cy="308" r="308" style="fill:#1e1e1e"/><path d="M837.65,842.62V823.13h94v19.49H894.46V942H875V842.62Z" transform="translate(-692 -707)" style="fill:#fff"/><path d="M947.89,942V823.13h19.49v47.4h53.43v-47.4h19.49V942h-19.49V890H967.38v52Z" transform="translate(-692 -707)" style="fill:#fff"/><path d="M1064.57,942V823.13h77v19.49h-57.48v27.91h50.87V890h-50.87v32.54h57.48V942Z" transform="translate(-692 -707)" style="fill:#fff"/><path d="M781.66,939.71v19.5H819v114.21h19.49V959.21h55.78v-19.5Z" transform="translate(-692 -707)" style="fill:#fff"/><path d="M890.66,1058.63V939.71h77V959.2H910.15v27.91H961v19.49H910.15v32.54h57.48v19.49Z" transform="translate(-692 -707)" style="fill:#fff"/><path d="M1039.3,938.06a60.84,60.84,0,0,1,44.76,19.49l-13.71,13.87a41.62,41.62,0,1,0,0,55.5l13.71,13.87a61.11,61.11,0,1,1-44.76-102.73Z" transform="translate(-692 -707)" style="fill:#fff"/><path d="M1097.76,1058.63V939.71h19.49v47.4h52.19v-47.4h19.49v118.92h-19.49v-52h-52.19v52Z" transform="translate(-692 -707)" style="fill:#fff"/><path d="M839,1056.3v81.92l-56.16-81.92h-18v118.92H784.3V1093.3l56,81.92h18.17V1056.3Z" transform="translate(-692 -707)" style="fill:#fff"/><path d="M870.51,1175.22l45.26-118.92h21.31l45.25,118.92h-21l-9.41-24.61h-51l-9.41,24.61Zm74.49-44.1-18.5-48.72-18.66,48.72Z" transform="translate(-692 -707)" style="fill:#fff"/><path d="M1014,1175.22H994.55V1056.3H1014Z" transform="translate(-692 -707)" style="fill:#fff"/><path d="M1027.41,1150.61l16.19-10.9c6.11,11.07,16.85,17.67,28.41,17.67,15.53,0,25.43-10.08,25.43-25.43l.22-56.16V1056.3h19.27v75.65c0,26.1-18.5,44.92-44.26,44.92C1053.84,1176.87,1037.49,1167.46,1027.41,1150.61Z" transform="translate(-692 -707)" style="fill:#fff"/><path d="M1123.37,1175.22l45.25-118.92h21.31l45.26,118.92h-21l-9.41-24.61h-51l-9.41,24.61Zm74.49-44.1-18.5-48.72-18.66,48.72Z" transform="translate(-692 -707)" style="fill:#fff"/><rect x="126.98" y="349.05" width="39.29" height="17.36" style="fill:#fff"/></svg>